<?xml version="1.0" encoding="UTF-8"?>
<svg id="_图层_1" data-name="图层 1" xmlns="http://www.w3.org/2000/svg" viewBox="0 0 56.69 56.69">
  <defs>
    <style>
      .cls-1 {
        fill: #950040;
        stroke-width: 0px;
      }
    </style>
  </defs>
  <g>
    <path class="cls-1" d="M33.52,6.96c-.16,1.04-.95,1.44-1.92,1.29-1.08-.17-1.7-.78-1.59-1.5l.48-3.04c.09-.56-.55-.38-.52-.57,0-.06.04-.09.15-.07.35.06.68.12.96.17.28.04.61.08.97.14.11.02.13.06.12.11-.03.19-.59-.17-.67.39l-.48,3.04c-.09.57.31,1.09.89,1.18.73.11,1.3-.28,1.43-1.11l.33-2.1c.09-.6-.08-.97-.38-1.13-.1-.05-.2-.07-.19-.14,0-.04.03-.07.11-.06.18.03.45.08.73.13.29.04.56.07.74.1.08.01.09.05.09.09-.01.06-.12.05-.23.07-.34.05-.61.36-.7.96l-.32,2.06Z"/>
    <path class="cls-1" d="M35.61,7.98c-.23.51-.12.82.04.99.15.16.34.17.29.28-.02.04-.04.06-.12.03-.22-.1-.46-.22-.73-.34-.26-.12-.52-.21-.74-.31-.08-.03-.08-.07-.06-.11.05-.11.19.03.4.03.23,0,.53-.12.76-.63l1.24-2.81c-.08-.4-.22-.57-.41-.68-.1-.06-.14-.08-.11-.15.02-.05.06-.06.11-.04.22.1.45.21.69.32l.72.32,1.02,3.91h.01s.84-1.9.84-1.9c.23-.51.12-.82-.04-.99-.15-.16-.34-.17-.29-.28.02-.04.04-.07.12-.03.22.1.46.22.73.34.26.12.52.21.74.31.08.03.08.07.06.11-.05.11-.19-.03-.4-.03-.23,0-.53.12-.76.63l-1.46,3.31c-.05.12-.1.21-.15.19-.06-.03-.07-.12-.09-.23l-1.24-4.85h-.01s-1.15,2.61-1.15,2.61Z"/>
    <path class="cls-1" d="M42.28,7.97c.33-.46-.32-.59-.21-.75.03-.04.08-.06.17,0,.29.21.56.42.79.58.23.16.51.35.8.56.09.07.09.11.06.16-.11.16-.45-.42-.77.04l-2.12,2.96c-.33.46.32.59.21.75-.03.05-.08.06-.17,0-.29-.21-.56-.42-.79-.58-.23-.16-.51-.35-.8-.56-.09-.07-.09-.11-.06-.16.11-.16.45.41.77-.04l2.12-2.96Z"/>
    <path class="cls-1" d="M46.72,12.8c.14-.06.29-.15.4-.25.49-.46-.04-.79.08-.91.03-.02.08-.02.14.03.16.17.31.35.48.53.16.17.33.33.49.5.1.1.13.18.09.23-.15.14-.31-.45-1.33-.06l-3.74,1.45c-.09.03-.17.06-.2.03-.03-.03,0-.11.04-.19l1.82-4.05c.26-.58-.14-.75-.04-.85.03-.02.08-.02.12.02.25.26.46.5.68.73.22.23.45.45.67.68.09.09.1.14.06.18-.11.1-.31-.38-.58-.12-.07.07-.12.15-.15.22l-1.29,2.73,2.27-.88Z"/>
    <path class="cls-1" d="M48.75,14.36c.48-.29-.06-.67.11-.77.05-.03.09-.02.15.07.18.31.34.61.49.85.45.75.88,1.46,1.31,2.17l-.97.99c-.08.08-.12.12-.14.13-.03.02-.06.01-.08-.03-.03-.05.07-.11.33-.58.3-.57.31-1.11-.12-1.83l-.2-.33-1.74,1.04.09.15c.25.42.75.54,1.2.31.12-.07.16-.07.2,0,.02.04,0,.08-.05.11l-1.85,1.1c-.05.03-.1.03-.12-.01-.04-.06-.02-.1.1-.17.52-.34.62-.82.37-1.24l-.09-.15-1.52.91c-.28.17-.36.36-.13.75.56.94,1.54,1.05,2.25.88.14-.03.19-.06.23,0,.03.04,0,.08-.03.1-.04.02-.12.05-.19.08l-1.5.53c-.47-.8-.94-1.61-1.44-2.45-.14-.24-.33-.52-.51-.83-.06-.1-.04-.14,0-.17.17-.1.24.56.73.27l3.13-1.87Z"/>
    <path class="cls-1" d="M49.77,22.31c.29-.26.31-.61.2-1l-1.62.48c-.54.16-.11.66-.29.72-.05.02-.1,0-.13-.11-.1-.34-.18-.67-.26-.94-.08-.27-.19-.59-.29-.93-.03-.11,0-.14.05-.16.19-.06.1.6.64.44l3.49-1.03c.54-.16.11-.66.29-.72.05-.02.1,0,.13.11.1.34.18.67.26.94.1.34.2.62.33,1.07.34,1.15,0,1.92-.68,2.12-.57.17-1.14-.04-1.7-1.39h-.01c.21.73.15,1.17-.28,1.58l-.83.79c-.45.43-.06.8-.25.86-.04.01-.08.02-.09-.04-.07-.24-.13-.49-.2-.73l-.21-.73,1.47-1.32ZM50.09,21.27l.08.26c.22.76.7.99,1.42.78.74-.22.94-.67.78-1.25l-.12-.42-2.14.63Z"/>
    <path class="cls-1" d="M50.69,25.5c.08,0,.11.02.11.06,0,.07-.1.08-.25.11-.88.21-1.76.61-1.71,1.63.03.72.42,1.11.96,1.08,1.42-.07.59-2.84,2.33-2.93.83-.04,1.48.63,1.52,1.5.03.66-.23,1.03-.22,1.22.01.25.2.13.21.26,0,.05-.02.08-.12.09l-1.32.19c-.13.02-.2.03-.23.03-.05,0-.07-.02-.07-.05,0-.07.14-.08.42-.21.76-.35,1.21-.75,1.17-1.53-.02-.5-.26-.88-.79-.86-1.15.06-.37,2.88-2.28,2.97-.93.05-1.69-.71-1.74-1.77-.03-.7.27-1.04.26-1.32-.01-.27-.25-.22-.25-.34,0-.04.01-.06.06-.06l1.95-.09Z"/>
    <path class="cls-1" d="M52.86,31.11c.56.08.37-.56.56-.54.06,0,.09.04.07.15-.05.35-.11.69-.14.97-.04.28-.07.61-.12.97-.02.11-.05.14-.11.13-.2-.03.16-.59-.4-.66l-3.61-.49c-.56-.07-.37.56-.56.54-.06,0-.09-.04-.07-.15.05-.36.11-.69.14-.97.04-.28.07-.62.12-.97.01-.11.05-.13.11-.13.2.03-.16.59.4.66l3.61.48Z"/>
    <path class="cls-1" d="M52.27,35.81c.08-1.44-.92-1.85-.87-2.01.01-.03.04-.05.09-.04.03,0,.13.06.23.11l1.15.63c.09.05.11.08.1.12-.01.03-.04.05-.08.08-.03.03-.09.06-.12.15l-1,2.99c-.03.09,0,.15,0,.19.02.04.03.08.02.11-.01.03-.04.04-.15.03l-1.29-.19c-.11-.02-.22-.04-.25-.05-.05-.02-.06-.05-.05-.08.05-.15,1.1.12,1.9-1.07l-3.69-1.24c-.43-.14-.59.03-.7.36-.03.08-.06.11-.13.09-.05-.02-.06-.06-.04-.13.13-.38.26-.71.36-1.03.11-.31.21-.66.33-1.04.02-.07.06-.1.11-.08.07.02.07.07.05.15-.11.33-.09.56.34.71l3.69,1.24Z"/>
    <path class="cls-1" d="M47.53,40.74l.53.98c.18.33.41.55.57.65.4.25.57-.16.67-.1.04.02.04.08,0,.16-.12.19-.22.33-.37.57-.12.19-.22.38-.33.56-.03.04-.06.05-.1.03-.12-.07.22-.25-.38-1.41l-.74-1.44-1.44-.9c-.48-.3-.57.36-.73.26-.05-.03-.06-.07,0-.17.19-.3.38-.58.53-.82.15-.24.32-.53.5-.84.06-.1.1-.1.15-.07.17.1-.38.47.09.77l1.32.83,2.35.13c.63.04.68-.39.81-.32.04.03.04.08,0,.14-.18.29-.37.56-.54.84-.17.28-.33.56-.51.84-.06.09-.1.12-.14.09-.12-.08.25-.36-.08-.57-.1-.06-.22-.09-.4-.1l-1.76-.12Z"/>
  </g>
  <g>
    <path class="cls-1" d="M10.64,42.21c-.07.05-.1.04-.13,0-.04-.06.05-.12.16-.22.65-.64,1.2-1.42.63-2.28-.4-.6-.93-.73-1.38-.43-1.18.79.96,2.74-.49,3.71-.69.46-1.6.22-2.08-.51-.37-.55-.33-1-.44-1.16-.14-.21-.24,0-.31-.11-.03-.04-.03-.08.06-.14l1.04-.84c.1-.09.15-.13.18-.15.04-.03.07-.02.09,0,.04.06-.08.15-.25.4-.48.69-.65,1.26-.22,1.91.28.42.68.62,1.12.33.96-.64-1.16-2.66.43-3.72.78-.52,1.81-.26,2.4.62.39.58.3,1.03.45,1.26.15.23.33.06.39.16.02.03.02.05-.02.08l-1.62,1.09Z"/>
    <path class="cls-1" d="M5.61,38.05c-.53.18-.08.67-.27.73-.05.02-.1,0-.13-.1-.11-.34-.21-.66-.3-.93-.09-.27-.21-.58-.33-.92-.04-.11-.01-.14.04-.16.19-.06.12.6.65.42l1.53-.52-.59-1.75-1.53.52c-.53.18-.08.67-.27.73-.05.02-.1,0-.13-.1-.11-.34-.21-.66-.3-.93-.09-.27-.21-.58-.33-.92-.04-.11-.01-.14.04-.16.19-.06.12.6.65.42l3.45-1.16c.53-.18.08-.67.27-.73.05-.02.1,0,.13.1.11.34.21.67.3.93.09.27.21.58.32.92.04.11.01.14-.04.16-.19.06-.12-.6-.65-.42l-1.76.59.59,1.75,1.76-.59c.53-.18.08-.67.27-.73.05-.02.1,0,.13.1.11.34.21.66.3.93.09.27.21.58.32.92.04.11.01.14-.04.16-.19.06-.12-.6-.65-.42l-3.45,1.16Z"/>
    <path class="cls-1" d="M3.81,31.12c-.56.03-.26.62-.46.63-.06,0-.09-.02-.1-.14-.02-.36-.02-.7-.03-.98-.04-.87-.09-1.7-.14-2.53l1.32-.42c.1-.03.16-.05.18-.05.04,0,.06.02.06.07,0,.06-.12.06-.56.36-.53.36-.8.83-.76,1.67l.02.38,2.02-.1v-.18c-.03-.49-.42-.83-.92-.84-.14,0-.18-.02-.18-.09,0-.04.03-.07.1-.08l2.15-.11c.06,0,.1.02.1.07,0,.07-.03.09-.17.11-.62.06-.94.43-.91.92v.18s1.78-.09,1.78-.09c.32-.02.49-.15.46-.6-.05-1.1-.86-1.65-1.57-1.83-.14-.04-.2-.04-.2-.1,0-.05.03-.07.07-.07.04,0,.13,0,.21.02l1.57.23c.04.93.08,1.86.12,2.84.01.28.04.62.06.98,0,.11-.03.14-.08.14-.2,0,.05-.61-.51-.58l-3.64.18Z"/>
    <path class="cls-1" d="M6.99,25.27c.55.12.83-.05.96-.24.12-.17.1-.37.21-.34.04,0,.07.03.05.11-.05.23-.12.5-.18.78-.06.28-.11.55-.16.79-.02.08-.06.09-.1.08-.12-.03,0-.19-.05-.4-.04-.23-.22-.5-.77-.62l-3-.66c-.38.15-.51.33-.59.54-.04.11-.05.16-.12.14-.05-.01-.07-.04-.06-.1.05-.23.12-.49.18-.74l.17-.77,3.63-1.78h0s-2.03-.46-2.03-.46c-.55-.12-.83.05-.96.24-.12.17-.1.37-.21.34-.04,0-.07-.03-.05-.11.05-.23.12-.5.19-.78.06-.28.11-.55.16-.79.02-.08.05-.09.1-.08.12.03,0,.19.05.4.04.23.22.5.77.62l3.54.77c.13.03.22.06.21.11-.01.06-.11.09-.2.13l-4.51,2.18h0s2.79.62,2.79.62Z"/>
    <path class="cls-1" d="M9.61,19.8c.34-.73.21-1.33-.05-1.79-.27-.47-.66-.64-.6-.75.01-.03.05-.05.1-.02.04.02.12.08.23.16l1.22.89c-.25.51-.5,1.03-.74,1.55-.24.52-.48,1.05-.72,1.57-.02.05-.07.06-.09.05-.03-.01-.06-.06-.12-.14l-2.86-4.24-.18.38c-.33.71-.28,1.28.07,1.82.32.48.42.47.38.55-.02.04-.04.04-.08.03-.02,0-.06-.04-.15-.12l-1.07-.89c.21-.46.45-.92.67-1.39.22-.47.43-.94.65-1.43.04-.08.07-.09.1-.08.03.02.08.09.15.19l2.86,4.18.25-.52Z"/>
    <path class="cls-1" d="M7.9,14.46c-.44-.35-.6.29-.76.17-.04-.04-.05-.08.02-.17.22-.28.45-.53.62-.75.18-.22.38-.49.6-.77.07-.09.12-.09.16-.05.15.12-.44.42,0,.78l1.26,1.01,1.15-1.44-1.26-1.01c-.44-.35-.6.29-.76.17-.04-.04-.05-.08.02-.17.22-.28.45-.53.62-.75.18-.22.38-.49.6-.77.07-.09.12-.09.16-.05.15.12-.44.42,0,.78l2.84,2.28c.44.35.6-.29.76-.17.04.04.05.08-.02.17-.22.28-.45.53-.62.75-.18.22-.38.49-.6.77-.07.09-.12.09-.16.05-.15-.12.44-.42,0-.77l-1.45-1.16-1.15,1.44,1.45,1.16c.44.35.6-.29.76-.17.04.04.05.08-.02.17-.22.28-.45.54-.62.75-.18.22-.38.49-.6.77-.07.09-.11.09-.16.05-.15-.12.44-.42,0-.78l-2.84-2.28Z"/>
    <path class="cls-1" d="M12.75,9.2c-.33-.46-.66.12-.77-.04-.03-.05-.03-.09.06-.16.29-.21.57-.39.8-.56.71-.51,1.38-1,2.05-1.48l1.07.89c.08.07.13.11.14.12.02.03.02.06-.02.09-.05.04-.12-.06-.6-.28-.59-.25-1.13-.22-1.81.27l-.31.22,1.18,1.65.14-.1c.4-.29.48-.79.21-1.22-.08-.12-.08-.16-.02-.2.04-.02.08-.01.12.04l1.25,1.75c.04.05.03.1,0,.12-.06.04-.09.02-.18-.09-.39-.49-.87-.55-1.27-.27l-.14.1,1.03,1.44c.19.26.39.33.75.06.89-.64.92-1.62.69-2.31-.04-.13-.07-.19-.02-.23.04-.03.08-.01.1.02.03.03.06.11.1.18l.66,1.45c-.76.53-1.52,1.07-2.32,1.64-.23.16-.5.37-.79.58-.09.07-.13.05-.17,0-.11-.16.54-.29.21-.75l-2.12-2.96Z"/>
    <path class="cls-1" d="M19.26,8.77c.2.53.49.66.72.68.21,0,.36-.12.4,0,.01.04.01.08-.06.11-.22.08-.49.17-.76.27-.27.1-.52.21-.75.3-.08.03-.1,0-.12-.04-.04-.11.15-.11.31-.26.16-.16.29-.46.09-.98l-1.08-2.88c-.34-.23-.55-.25-.77-.2-.11.03-.16.04-.18-.03-.02-.05,0-.08.05-.1.22-.08.47-.16.72-.25l.74-.28,3.47,2.07h.01s-.73-1.95-.73-1.95c-.2-.53-.49-.66-.72-.67-.21,0-.36.12-.4,0-.01-.04-.01-.08.06-.11.22-.08.49-.17.75-.27.27-.1.52-.21.75-.3.08-.03.1,0,.12.04.04.11-.15.11-.31.26-.17.16-.29.46-.09.98l1.28,3.39c.05.12.08.22.02.24-.06.02-.13-.04-.22-.1l-4.28-2.59h-.01s1.01,2.68,1.01,2.68Z"/>
  </g>
  <path class="cls-1" d="M16.45,47.79c0,.37-.29.66-.66.66s-.66-.29-.66-.66.3-.66.66-.66.66.29.66.66Z"/>
  <path class="cls-1" d="M41.5,47.79c0,.37-.3.66-.66.66s-.66-.29-.66-.66.3-.66.66-.66.66.29.66.66Z"/>
  <path class="cls-1" d="M28.35,56.69c-3.83,0-7.54-.75-11.03-2.23-3.38-1.43-6.41-3.47-9.01-6.07s-4.65-5.63-6.07-9.01c-1.48-3.5-2.23-7.21-2.23-11.03s.75-7.54,2.23-11.03c1.43-3.38,3.47-6.41,6.07-9.01,2.6-2.6,5.63-4.65,9.01-6.08,3.5-1.48,7.21-2.23,11.03-2.23s7.54.75,11.03,2.23c3.38,1.43,6.41,3.47,9.01,6.08,2.6,2.6,4.65,5.63,6.07,9.01,1.48,3.5,2.23,7.21,2.23,11.03s-.75,7.54-2.23,11.03c-1.43,3.37-3.47,6.41-6.07,9.01-2.6,2.6-5.63,4.65-9.01,6.07-3.5,1.48-7.21,2.23-11.03,2.23h0ZM28.35,1.32C13.44,1.32,1.32,13.44,1.32,28.35s12.12,27.03,27.03,27.03,27.03-12.12,27.03-27.03S43.25,1.32,28.35,1.32h0Z"/>
  <g>
    <path class="cls-1" d="M20.93,51.71c-.09.28.03.48.4.63.35.14.43.17.39.26-.01.04-.06.07-.13.04-.45-.15-.91-.31-1.34-.45-.46-.15-.92-.29-1.37-.44-.07-.03-.09-.08-.08-.12.03-.1.11-.08.47.03.39.11.61.02.7-.26l1.04-3.11c.05-.15.02-.2-.1-.24l-.91-.3c-.06-.02-.08-.06-.07-.1.03-.1.15,0,.75.11.9.18,1.33-.06,1.47-.01.06.02.08.06.04.18l-1.27,3.79Z"/>
    <path class="cls-1" d="M25.84,48.48c1.15.12,1.76,1.09,1.63,2.26-.22,2.02-2.85,2.52-3.17,2.48-.03,0-.04-.03-.04-.06,0-.08,1.49-.3,2.07-1.98-.29.15-.59.23-.97.19-1.14-.12-1.56-.9-1.48-1.6.09-.84.77-1.42,1.95-1.29ZM25.58,51.23c.34.04.73-.15.82-.29.03-.05.11-.33.14-.62.14-1.26-.23-1.66-.74-1.71-.4-.04-.83.15-.94,1.23-.1.96.27,1.34.73,1.39Z"/>
    <path class="cls-1" d="M29.55,51.01c-.44-.27-.64-.62-.67-.98-.07-.76.61-1.42,1.59-1.51.81-.07,1.45.37,1.5.98.04.41-.16.82-.47,1.08.55.14.9.61.95,1.21.07.81-.67,1.52-1.82,1.62-.99.09-1.69-.45-1.75-1.17-.03-.4.18-.9.68-1.23ZM30.61,53.28c.7-.06,1.03-.53.98-1.07-.03-.38-.21-.67-.99-.88-.73-.2-.79-.26-.89-.25-.13.01-.45.41-.39,1.01.06.76.53,1.25,1.29,1.19ZM30.48,48.65c-.49.04-.8.39-.76.89.06.71,1.15.88,1.65.99.15-.2.26-.4.22-.88-.06-.72-.5-1.06-1.12-1Z"/>
    <path class="cls-1" d="M36.07,49.27c.52.17.95.44,1.12.99.28.91-.37,1.88-1.35,2.18-.95.3-1.71.05-1.86-.43-.08-.26.03-.56.31-.65.34-.11.55.05.71.5.16.47.47.56.79.46.54-.17.81-.7.6-1.39-.18-.56-.61-.86-1.06-.87-.3,0-.55.16-.58.06-.05-.15.26-.08.54-.36.19-.19.22-.53.11-.9-.16-.5-.58-.67-1.12-.5-.72.22-.62.78-.75.82-.03.01-.06,0-.07-.04-.05-.17.16-1.1,1.08-1.39.67-.21,1.44-.03,1.66.7.1.31.03.55-.12.84Z"/>
  </g>
  <g>
    <path class="cls-1" d="M23.49,30.75c.06.04.11.05.2.05.2,0,.32-.12.37-.14.02,0,.08-.04.08-.05,0-.08-.29-.2-.43-.2-.17,0-.45.15-.45.19,0,.05.18.13.24.16Z"/>
    <path class="cls-1" d="M25.18,34.24c.08-.41-.06-.3-.93-.33-.4,0-1.78-.03-2.17.02-.18.02-.2.17-.2.26,0,.3-.08.27,1.41.27l.58-.04c.93-.05,1.16.06,1.32-.17Z"/>
    <path class="cls-1" d="M40.21,20.91c0,.38.16.72.41.96h0s4.46,4.48,4.46,4.48h0c.24.24.39.57.39.93v-5.59c0-.26-.15-.63-.34-.81l-9.37-9.37c-.19-.19-.55-.34-.81-.34h-.69c-.18,0-.33.15-.33.33v4.45c0,.27-.22.49-.49.5h-.5v-4.29c0-.55-.44-.99-.99-.99h-7.25c-.55,0-.99.44-.99.99v4.29h-.5c-.27,0-.49-.22-.49-.5v-4.45c0-.18-.15-.33-.33-.33h0s-.69,0-.69,0c-.26,0-.63.15-.81.34l-9.37,9.37c-.19.19-.34.55-.34.81v5.59c0-.36.15-.7.39-.93h0s4.46-4.47,4.46-4.47h0c.25-.25.41-.59.41-.97v.93c0,.37-.15.7-.39.93h0s-4.46,4.47-4.46,4.47h0c-.25.25-.41.59-.41.97v5.06c0-.37.15-.7.39-.93h0s4.46-4.47,4.46-4.47h0c.25-.25.41-.59.41-.97v.93c0,.37-.15.7-.39.93h0s-4.46,4.47-4.46,4.47h0c-.25.25-.41.59-.41.97v.74c0,.26.15.63.34.81l1.31,1.31,3.21-3.21h0c.25-.25.41-.59.41-.97v.93c0,.36-.15.7-.39.93h0s-2.78,2.78-2.78,2.78l7.52,7.52,2.03-3.66c.17-.32.52-.54.91-.54h.79c-.4,0-.75.23-.92.56h0l-2.22,4c.11.03.21.05.31.05h3.86l.74-4.07c.05-.31.33-.55.65-.55h.67c-.33,0-.6.24-.66.55l-.74,4.06h4.18l-.74-4.06c-.05-.31-.33-.55-.66-.55h.67c.33,0,.6.24.66.55l.74,4.07h3.86c.09,0,.2-.02.31-.05l-2.22-4h0c-.17-.33-.52-.56-.92-.56h.79c.39,0,.73.22.91.54l2.03,3.66,7.52-7.52-2.78-2.78h0c-.24-.24-.39-.57-.39-.93v-.93c0,.38.16.72.41.96h0s3.21,3.22,3.21,3.22l1.31-1.31c.18-.19.34-.55.34-.81v-.74c0-.38-.16-.72-.41-.96h0s-4.46-4.48-4.46-4.48h0c-.24-.24-.39-.57-.39-.94v-.93c0,.38.16.72.41.96h0s4.46,4.48,4.46,4.48h0c.24.24.39.57.39.93v-5.06c0-.38-.16-.72-.41-.96h0s-4.46-4.48-4.46-4.48h0c-.24-.24-.39-.57-.39-.93v-.93ZM32.01,21.22c.15-1.38.18-1.24.94-1.52.91-.17,1.41-.31,1.88-.29.47.01,1.54.04,2.51.41.42.15.25.29.27,1.87-.07.59-.12.5-.73.56-.5-.01-.77.03-1.42-.15-.21-.26-.47-1.68-.95-1.5-.2.15,0,.17-.34.86-.07.11-.19.45-.32.59-.49.22-.91.16-1.47.18-.52-.02-.38-.27-.39-1ZM31.03,20.05c.01-.29,0-.36.23-.37.38,0,.38.13.41.32,0,.3-.01.92-.02,1.5,0,.34,0,1.06-.26,1.16-.3.04-.48.07-.46-.27-.02-.2.08-.5.13-.81.05-.31,0-1.17-.03-1.53ZM31.21,23.56c.35.14.37,1.23.37,1.23,0,.15.03,1.09.03,1.42,0,.32.03.55-.03.69-.11.09-.24.11-.43.07-.16-.09-.24-.93-.24-1.21s0-.93-.09-1.56c-.08-.63-.01-.56.39-.63ZM29.9,22.97c.04-.46.17-2.06.12-2.46.01-.26-.03-.64.06-.93.04-.13.17-.15.4-.17.37-.07.29,1.23.29,1.23-.04,1.12-.33,3.33-.33,3.91-.11.95.34,3.48.09,3.71-.08.04-.4.09-.48-.07-.24-.68-.25-1.73-.3-2.63-.06-1.01.11-2.13.15-2.59ZM28.92,21.5c.11-.68.06-1.46.12-1.67.06-.07.24-.12.45-.07.25.18.33,2.38-.23,2.82-.17,0-.37.02-.43-.1-.08-.15,0-.49.09-.99ZM28.63,24.46c0-.89.09-1.04.26-1.3.19-.1.44.04.53.15.12.31-.09,1.87-.11,2.57-.05.69.18,1.39-.1,1.51-.29.1-.49,0-.52-.19-.1-.84-.06-2.73-.06-2.73ZM27.83,35.31c-.05,1.16-.07,1.05-.88,1.05-.7,0-2.45,0-2.56.01,0,.16-.04.52-.02.85.03.45.28.57-1.57.76-.44.04-3.23-.07-3.42-.4-.2-.34-.55-.89-.28-1.36.39.31.77.55,1.62.86.68.12,1.78.22,2.35.05.4-.16.39-.28.37-.71-1.3-.08-2-.11-2.43-.14-.72-.09-.68-.08-.69-.43.04-.29.11-.36.57-.33.26.04.81.08,1.56.08h.99v-.58s-1.01.04-1.38.02c-1.18-.05-.99-.22-1.05-.76.1-.96.1-.83.97-.89.75-.01,2.87-.05,3.42-.03.86.08.75.14.73.9-.09.43.07.59-.77.71-.15,0-.97.06-.97.06v.56h1.91s.68-.01.68-.58.08-1.42.08-1.42c0,0,0-.6-.59-.6s-3.78-.05-5.09-.03c-1.01,0-1.04.17-1.12.52-.09.39-.17,2.01-.47,1.94-.76-.19-.59-.27-.58-.72.03-.6.14-1.22.24-1.82.16-.42.23-.65,2.73-.64,1.15,0,4.53,0,4.53,0,.76.05,1.02.04,1.13.78.09,1.08.04,1.43,0,2.27ZM20.32,30.21c0,.18.3.15.89.13.52,0,.49-.11.51.31,0,.16.02.2-.33.21-1.2.06-1.09.03-1.09.31,0,.24.2.19.93.15.47-.02.5-.09.54.23.02.2-.01.33-.01.33-.34,0-1.65.13-1.98.1-.35-.05-.35-.02-.33-.72.04-.63.07-1.23.21-1.75.15-.32.17-.25,1.5-.31.7,0,.63-.04.68.43.01.17.05.21-1.1.27-.52-.01-.43-.05-.42.31ZM22.29,29.56c-.07-.04.17-.38.3-.41.17.03.62.29.76.34.04.01.18.08.36.17.09-.04.15-.07.19-.09.15-.09.83-.47,1.01-.46.05.04.31.43.13.54-.23.15-.48.33-.65.4.2.11.36.2.4.22.28.14.34.2.31.49-.03.06-.16.16-.22.18-.15.07-.28.15-.43.22.12.06.25.12.37.18.53.3.5.23.34.5-.2.28-.49.13-.62.08-.07-.03-.48-.2-.85-.4-.23.13-.52.29-.79.41-.37.17-.43.18-.55,0-.22-.32-.09-.31.29-.53.04-.02.22-.11.35-.2-.16-.08-.35-.15-.54-.28-.05-.03-.2-.11-.21-.21,0-.14-.06-.28.36-.51.13-.07.24-.12.37-.18-.27-.13-.57-.29-.66-.46ZM27.65,31.88c-.28.06-1.87.1-1.9.09-.15-.02-.17,0-.16-.21,0-.31.02-.34.55-.33.52.01.93.05.93-.26,0-.24-.06-.28-.91-.25-.49.01-.46,0-.49-.1-.06-.3-.13-.47.29-.49.59-.05,1.08,0,1.11-.15.06-.26,0-.35-.47-.31-.98.07-1.04.14-1.05-.17,0-.3-.13-.39.66-.43.8-.01,1.44-.11,1.49.25.14.42.14.98.17,1.8.02.55-.02.53-.23.57ZM27.52,28.52c-.27.14-1.29-1.25-1.99-2.15-.25-.31-1.15-1.09-1.95-1.13-1.2-.07-2.87,2.07-3.28,2.8-.21.32-.45.65-.8.49-.33-.21-.32-.2-.13-.75.34-.81,1.84-2.45,2.48-2.91.68-.64.85-.72,1.07-1.48.11-1.38.07-1.71-.33-1.78-.4-.04-2.18-.3-2.25.8-.06.94-.06,1.35-.06,1.73,0,.56-.04.47-.6.47-.36,0-.17-1.88-.17-3.15.2-.77.66-.63,1.43-.69.4.04.92,0,1.19,0,.64,0,.79-.33.83-.84.04-.53.1-.55.54-.62.4-.06.36.24.44.65.14.62-.07.67.83.72.77,0,1.36.02,1.69.04.75.07,1.16,0,1.21,1.15.03.97.27,1.88-.02,2.24-.12.15-.47.33-.72.29-.31-.17.34-2.3-.46-2.67-.48-.22-1.82-.22-2.21-.03-.37.17-.22.94-.25,1.48,0,.43,0,.89.88,1.46.89.66,1.7,1.48,2.51,2.46.49.52.92,1.19.15,1.43ZM28.02,16.45h-3.96c0-.55.44-.99.99-.99h2.47c.27,0,.49.22.49.49v.5ZM31.79,33.56c-.16.15-.72.23-.84.41s-.08,1.49,0,1.57c.1.11.37.04.77,0,.3,0,.41.94.18.97-.24.04-1.11.14-1.57.19-.49.06-.77.1-1.24.09-.44,0-.43-.23-.47-.56,0-.38-.04-.51.32-.46.35.01.59.06.91-.21.23-.19.1-.68.13-1.05-.01-.33.08-.63-.39-.52-.66.15-.7.26-.7-.87,0-.4,0-.78.02-1.05.04-.54-.08-.82.6-.96.29-.06.14.83.13,1.24,0,.4-.05.82.17.82.56.04.24-1.21.28-2.27.02-.7-.12-1.02.43-1.12.49-.07.38.11.4.69,0,.55-.02,2.44.21,2.42.47-.03.38-1.63.35-1.91-.01-.43-.09-.62.35-.65.34-.02.34-.04.41.34.06.4.07.78.07,1.08-.03.39-.05.6-.13,1.02-.06.46-.22.63-.37.79ZM33.84,37.9c-.24.06-.34.05-.65,0-.22-.04-.33-.29-.51-.86-.09-.31-.17-.61-.31-1.34-.09-.82-.19-1.48-.02-1.9.08-.3.26-.75.44-1.1.14-.34.27-.6.43-1.2.11-.59.1-.64,0-1.14-.03-.2-.17-.46-.27-.73-.16-.35-.26-.53.14-.58.59-.04.54.02.81.41.28.64.28.89.3,1.1.06.49.04,1.04-.42,2.06-.45.88-.63,1.25-.57,2.09.07.94.28,1.94.4,2.29.1.27.43.86.24.9ZM35.28,36.6c.18.62.58,1.17.32,1.23-.21.05-.58.03-.7-.11-.25-.28-.48-.78-.64-1.59-.12-.87-.2-1.42-.11-2.21.27-1.18.87-1.55.97-2.54.06-.63-.01-.83-.11-1.1-.16-.47-.72-1.2-.08-1.2.4,0,.4.05.56.17.25.19.53,1.04.57,1.53.06.73-.27,1.45-.52,2.09-.28.71-.56,1.12-.56,1.82.04.49.09,1.11.29,1.91ZM37.56,32.14c-.32,1.21-.6,1.07-.83,2.4,0,.51.27,1.63.38,2.05.08.39.45,1.16.26,1.22-.19.06-.61-.04-.76-.16-.22-.17-.4-.95-.49-1.22-.18-.76-.47-2.09.09-3.17.16-.34.42-.8.57-1.67,0-1.19-.06-1.33-.24-1.88-.13-.32-.3-.57,0-.59.88,0,.77.26,1.02.85.16.7.17.97,0,2.18ZM37.34,28.07c-.48.17-.44-.06-.46-.74-.02-.44.04-1.82-.57-2.02-.52-.25-1-.27-1.11-.1-.08.12-.05,2.55-.05,2.55.01.57-.24.48-.5.45-.49-.13-.43-.41-.42-.86s0-2.09-.07-2.18c-.07-.08-1.01-.13-1.16.84-.15.93-.25,1.55-.29,1.75-.02.12-.05.28-.14.31-.17.06-.52.13-.58.04-.1-.35,0-.87.05-1.46.11-.61.25-1.06.44-1.6.07-.35,1.02-.59,1.57-.82.32-.09.23-.58.13-.6-.17-.04-.8.05-1.2.09-.28,0-.53.22-.74-.26-.11-.24-.16-.45.51-.49l.86-.07s.61-.02.65-.12c0-.16.03-.46.18-.7.05-.08.3-.04.45-.03.33.09.2.11.26.51.02.19-.05.24,1.03.21.76-.02,1.32-.11,1.29.19,0,.15,0,.46-.07.54-.11.11-.32.07-.68.08-.53,0-1.39.03-1.52.05-.08.04-.07.19-.03.36.05.12-.03.14.47.25,1.66.49,1.64.38,1.9,1.46.16.91.14,1.41.15,1.68-.01.31.11.53-.34.68Z"/>
    <path class="cls-1" d="M36.36,21.36l.4-.02c.21-.05.18-.36.07-.81-.13-.27-.51-.25-.88-.24-.15,0-.25.03-.21.26.15.89.19.75.62.81Z"/>
    <path class="cls-1" d="M32.87,21.41l.29-.02c.58-.04.55-.36.62-.84.03-.19-.29-.15-.61-.09-.3.06-.31.05-.37.27-.06.21-.14.63.07.69Z"/>
  </g>
</svg>